<svg width="40" height="40" viewBox="0 0 40 40" fill="none" xmlns="http://www.w3.org/2000/svg">
    <path d="M19.7688 31.775C19.5555 31.775 19.3422 31.6933 19.1788 31.5316L8.4671 20.8199C8.15376 20.5066 8.14043 20.0049 8.43377 19.6749L16.4621 10.6815C22.0738 4.11648 31.2122 -0.131875 39.1806 0.00312595C39.6256 0.013126 39.9839 0.371461 39.9939 0.816464C40.1789 8.78984 35.8823 17.9232 29.3006 23.5466L20.3222 31.5633C20.1655 31.705 19.9655 31.775 19.7688 31.775ZM10.2021 20.1982L19.8005 29.7966L28.2055 22.2933C34.2156 17.1566 38.2073 8.96984 38.3306 1.66814C31.0289 1.7898 22.8438 5.78149 17.7172 11.7782L10.2021 20.1982Z" fill="white"/>
    <path d="M22.9606 37.875C22.8806 37.875 22.799 37.8633 22.7223 37.8383C22.4223 37.7383 22.1756 37.5083 22.1323 37.195L20.989 29.2166C20.924 28.7616 21.2406 28.3399 21.6956 28.2733C22.1506 28.2016 22.5723 28.5233 22.639 28.9799L23.5323 35.2133C26.4523 31.7216 28.0757 27.2949 28.0757 22.7816C28.0757 22.3216 28.449 21.9482 28.909 21.9482C29.369 21.9482 29.7423 22.3216 29.7423 22.7816C29.7423 28.3033 27.5057 33.7083 23.6056 37.6067C23.439 37.7733 23.1956 37.875 22.9606 37.875Z" fill="white"/>
    <path d="M10.9022 19.0183C10.8639 19.0183 10.8239 19.0166 10.7839 19.01L2.80552 17.8666C2.49218 17.8216 2.23052 17.6033 2.13218 17.3016C2.03385 17.0016 2.11385 16.67 2.33885 16.4483C6.29387 12.4933 11.6972 10.2566 17.2189 10.2566C17.6789 10.2566 18.0523 10.6299 18.0523 11.0899C18.0523 11.5499 17.6789 11.9233 17.2189 11.9233C12.6839 11.9233 8.23388 13.5616 4.77886 16.465L11.0206 17.36C11.4756 17.4266 11.7922 17.8466 11.7272 18.3033C11.6656 18.7183 11.3089 19.0183 10.9022 19.0183Z" fill="white"/>
    <path d="M28.5558 15.6083C27.4875 15.6083 26.4208 15.2016 25.6091 14.39C23.9858 12.7649 23.9858 10.1216 25.6091 8.49659C27.2341 6.87158 29.8775 6.87158 31.5025 8.49659C33.1258 10.1216 33.1258 12.7649 31.5025 14.39C30.6891 15.2033 29.6225 15.6083 28.5558 15.6083ZM28.5558 8.94492C27.9158 8.94492 27.2741 9.18826 26.7874 9.67493C25.8141 10.6499 25.8141 12.2366 26.7874 13.2116C27.7625 14.185 29.3491 14.1833 30.3241 13.2116C31.2975 12.2366 31.2975 10.6499 30.3241 9.67493C29.8358 9.18993 29.1958 8.94492 28.5558 8.94492ZM30.9125 13.8016H30.9291H30.9125Z" fill="white"/>
    <path d="M0.833697 39.9985C0.615363 39.9985 0.403695 39.9135 0.243694 39.7552C0.0270259 39.5385 -0.0529745 39.2202 0.0353593 38.9268C0.308694 38.0152 2.75704 29.9584 4.54038 28.1751C6.54873 26.1668 9.81708 26.1651 11.8254 28.1751C13.8338 30.1834 13.8338 33.4518 11.8254 35.4601C10.0421 37.2435 1.98537 39.6918 1.0737 39.9652C0.993698 39.9868 0.913698 39.9985 0.833697 39.9985ZM8.18374 28.3334C7.2904 28.3334 6.39873 28.6734 5.71872 29.3518C4.75705 30.3151 3.15704 34.6168 2.10037 37.8985C5.38039 36.8418 9.68375 35.2418 10.6454 34.2801C12.0038 32.9218 12.0038 30.7101 10.6454 29.3518C9.96708 28.6734 9.07541 28.3334 8.18374 28.3334Z" fill="white"/>
</svg>
