<svg width="40" height="40" viewBox="0 0 40 40" fill="none" xmlns="http://www.w3.org/2000/svg">
    <path d="M39.1662 34.9997H4.99994V0.83335C4.99994 0.373121 4.62682 0 4.16659 0C3.70636 0 3.33332 0.373121 3.33332 0.83335V34.9996H0.83335C0.373121 34.9997 0 35.3727 0 35.833C0 36.2932 0.373121 36.6663 0.83335 36.6663H3.33332V39.1663C3.33332 39.6265 3.70644 39.9996 4.16667 39.9996C4.6269 39.9996 4.99994 39.6265 4.99994 39.1663V36.6663H39.1662C39.6264 36.6663 39.9995 36.2932 39.9995 35.833C39.9995 35.3727 39.6264 34.9997 39.1662 34.9997Z" fill="white"/>
    <path d="M7.49989 33.3335C7.03966 33.3329 6.66708 32.9592 6.66779 32.499C6.66802 32.3104 6.73224 32.1275 6.84989 31.9801L13.5165 23.6469C13.6639 23.4614 13.8833 23.3475 14.1198 23.3335C14.3567 23.3189 14.5883 23.4077 14.7548 23.5769L17.3331 26.1568L21.7831 18.7386C21.9249 18.5021 22.1745 18.3512 22.4497 18.3352C22.721 18.3234 22.9822 18.4386 23.1564 18.6469L25.3863 21.4352L28.3513 7.33378C28.4464 6.88347 28.8885 6.5955 29.3389 6.69066C29.4971 6.7241 29.6421 6.80277 29.7563 6.91714L34.0762 11.2371L38.4995 5.3338C38.7753 4.96537 39.2976 4.89021 39.666 5.16591C40.0344 5.44161 40.1096 5.96395 39.8339 6.33238C39.8336 6.33285 39.8332 6.33332 39.8329 6.33371L34.8329 13.0003C34.5568 13.3684 34.0344 13.4429 33.6662 13.1668C33.6351 13.1434 33.6055 13.1178 33.578 13.0903L29.6664 9.17696L26.6497 23.5103C26.5549 23.9607 26.113 24.2489 25.6626 24.1541C25.4733 24.1143 25.3037 24.0098 25.183 23.8587L22.5981 20.6287L18.2148 27.9336C17.9799 28.3294 17.4687 28.4599 17.0729 28.2251C17.0142 28.1903 16.9599 28.1483 16.9115 28.1003L14.2449 25.4336L8.1516 33.0219C7.99301 33.2193 7.75317 33.334 7.49989 33.3335Z" fill="white"/>
</svg>
