<svg width="40" height="40" viewBox="0 0 40 40" fill="none" xmlns="http://www.w3.org/2000/svg">
    <path d="M20 0C19.9561 0 19.9121 0.000625 19.8681 0.00125V0H14.5453V4.56852C13.9984 4.76203 13.4644 4.98297 12.9455 5.23133L9.71492 2.00016L2.0007 9.71438L5.23133 12.945C4.98352 13.4638 4.76195 13.9979 4.56852 14.5453H0V25.4541H4.56852C4.76203 26.001 4.98352 26.5357 5.23133 27.0545L2.0007 30.2856L9.71492 37.998L12.9455 34.768C13.4644 35.0171 13.9984 35.2368 14.5453 35.4309V40H19.8682V39.9976C19.9121 39.9988 19.9561 40 20.0001 40C31.0463 40 40.0001 31.0449 40.0001 20C40 8.95383 31.0462 0 20 0ZM19.1669 26.615C17.7014 26.4331 16.3464 25.7739 15.2863 24.7144C14.0271 23.4546 13.3331 21.7798 13.3331 20C13.3331 18.219 14.0271 16.5448 15.2863 15.2856C16.3464 14.2248 17.7014 13.5656 19.1669 13.3844V26.615ZM19.1669 11.7077C14.9555 12.1259 11.6669 15.6787 11.6669 20C11.6669 24.3213 14.9555 27.8735 19.1669 28.291V38.3325H16.2122V35.4309V34.2529L15.1013 33.8598C14.6087 33.6853 14.1254 33.4851 13.6652 33.2641L12.6007 32.7551L11.767 33.5888L9.71492 35.642L4.35789 30.2856L6.40992 28.2324L7.2443 27.3987L6.73469 26.3355C6.51375 25.8728 6.31352 25.3895 6.14023 24.8987L5.74719 23.7866H4.56852H1.66688V16.2122H4.56852H5.74711L6.14016 15.1007C6.31352 14.61 6.51367 14.1266 6.73461 13.6645L7.24367 12.6001L6.40992 11.7663L4.35789 9.7143L9.71492 4.35727L11.767 6.4093L12.6007 7.24367L13.6645 6.73461C14.1272 6.51367 14.61 6.31344 15.1007 6.14016L16.2122 5.74711V4.56852V1.66625H19.1669V11.7077ZM36.8934 12.8644C37.7417 14.8688 38.2178 16.9855 38.3142 19.1663H31.2366C31.1536 16.5497 30.6812 14.0308 29.8767 11.6663H36.3355C36.5356 12.0575 36.7212 12.4573 36.8934 12.8644ZM27.1362 3.10672C29.3188 4.02953 31.2793 5.35156 32.9639 7.03609C33.8734 7.94609 34.6766 8.93734 35.3687 10H29.2432C28.0066 7.05508 26.2402 4.38781 24.0637 2.11672C25.1111 2.35414 26.1377 2.68437 27.1362 3.10672ZM20.8331 1.68461C20.9607 1.69078 21.0883 1.6975 21.2158 1.70602C21.6565 2.0875 22.0849 2.48664 22.5012 2.90227C24.5703 4.9707 26.2244 7.35594 27.4255 10H20.8331V1.68461ZM20.8331 11.6663H28.1103C28.9929 14.0698 29.4823 16.5845 29.5691 19.1663H20.8331V11.6663ZM20.8331 20.8331H29.5691C29.4824 23.4155 28.9929 25.9302 28.1103 28.3325H20.8331V20.8331ZM21.2158 38.2934C21.0882 38.302 20.9606 38.3093 20.8331 38.3154V30H27.4255C26.2244 32.6441 24.5703 35.0293 22.5012 37.0972C22.085 37.5134 21.6565 37.9114 21.2158 38.2934ZM32.9639 32.9639C31.2794 34.6484 29.3189 35.9693 27.1362 36.8921C26.1377 37.3145 25.1111 37.6465 24.0625 37.8834C26.2402 35.6116 28.0066 32.9444 29.2431 30.0001H35.3686C34.6765 31.062 33.8733 32.0532 32.9639 32.9639ZM36.8933 27.1362C36.7212 27.5427 36.5356 27.9419 36.3355 28.3325H29.8767C30.6812 25.9692 31.1536 23.4497 31.2366 20.8331H38.3142C38.2178 23.0139 37.7417 25.1306 36.8933 27.1362Z" fill="white"/>
</svg>
