<svg width="46" height="46" viewBox="0 0 46 46" fill="none" xmlns="http://www.w3.org/2000/svg">
    <path d="M23 46C16.8565 46 11.0806 43.6076 6.73648 39.2635C2.39236 34.9194 0 29.1435 0 23C0 16.8565 2.39245 11.0807 6.73648 6.73648C11.0805 2.39227 16.8565 0 23 0C29.1435 0 34.9194 2.39236 39.2635 6.73648C43.6076 11.0806 46 16.8565 46 23C46 29.1435 43.6076 34.9193 39.2635 39.2635C34.9195 43.6077 29.1435 46 23 46ZM23 2.875C11.903 2.875 2.875 11.903 2.875 23C2.875 34.097 11.903 43.125 23 43.125C34.097 43.125 43.125 34.097 43.125 23C43.125 11.903 34.097 2.875 23 2.875Z" fill="#222629"/>
    <path d="M23 21.5625C21.0184 21.5625 19.4062 19.9503 19.4062 17.9688C19.4062 15.9872 21.0184 14.375 23 14.375C24.9816 14.375 26.5938 15.9872 26.5938 17.9688C26.5938 18.7626 27.2373 19.4062 28.0312 19.4062C28.8252 19.4062 29.4688 18.7626 29.4688 17.9688C29.4688 14.896 27.3145 12.3187 24.4375 11.663V10.0625C24.4375 9.26864 23.7939 8.625 23 8.625C22.2061 8.625 21.5625 9.26864 21.5625 10.0625V11.663C18.6855 12.3187 16.5312 14.896 16.5312 17.9688C16.5312 21.5356 19.4331 24.4375 23 24.4375C24.9816 24.4375 26.5938 26.0497 26.5938 28.0312C26.5938 30.0128 24.9816 31.625 23 31.625C21.0184 31.625 19.4062 30.0128 19.4062 28.0312C19.4062 27.2374 18.7627 26.5938 17.9688 26.5938C17.1748 26.5938 16.5312 27.2374 16.5312 28.0312C16.5312 31.104 18.6855 33.6813 21.5625 34.337V35.9375C21.5625 36.7314 22.2061 37.375 23 37.375C23.7939 37.375 24.4375 36.7314 24.4375 35.9375V34.337C27.3145 33.6813 29.4688 31.104 29.4688 28.0312C29.4688 24.4644 26.5669 21.5625 23 21.5625Z" fill="#222629"/>
</svg>
