<svg width="44" height="40" viewBox="0 0 44 40" fill="none" xmlns="http://www.w3.org/2000/svg">
    <path d="M42.6201 0.787616C42.6201 0.787616 42.6201 0.787616 42.6091 0.787616L31.4083 0.00283432C30.8025 -0.0401674 30.2739 0.411351 30.2408 1.00262C30.1968 1.5939 30.6483 2.09917 31.2541 2.14217L39.6024 2.72269L24.5138 14.1827L13.2578 5.52856C12.8283 5.19529 12.2116 5.22755 11.8151 5.59306L0.33888 16.3327C-0.101664 16.7413 -0.112678 17.4293 0.30584 17.8486C0.515098 18.0636 0.801452 18.1818 1.09882 18.1818C1.38517 18.1818 1.66051 18.0743 1.85876 17.8808L12.6411 7.78615L23.8309 16.3865C24.2274 16.6875 24.7891 16.6983 25.1856 16.3865L41.2324 4.217L40.6267 11.9358C40.5826 12.5271 41.0342 13.0431 41.6399 13.0861C41.673 13.0861 41.695 13.0861 41.728 13.0861C42.3008 13.0861 42.7854 12.6561 42.8294 12.0971L43.6334 1.93791C43.6775 1.34664 43.2259 0.830618 42.6201 0.787616Z" fill="#222629"/>
    <path d="M42.578 37.8503H39.8157V19.2027C39.8157 18.6116 39.2971 18.1816 38.715 18.1816H31.9838C31.4017 18.1816 30.936 18.6116 30.936 19.2027V37.8503H26.2792V22.6313C26.2686 22.0294 25.8029 21.5242 25.1997 21.5135H18.4685C17.8758 21.535 17.3995 22.0294 17.3889 22.6313V37.8503H12.7321V27.2099C12.7321 26.6187 12.2664 26.1351 11.6843 26.1351H4.93198C4.34988 26.1351 3.83128 26.6187 3.83128 27.2099V37.8503H1.05836C0.476264 37.8503 0 38.3339 0 38.925C0 39.5162 0.476264 39.9998 1.05836 39.9998H42.578C43.1601 39.9998 43.6364 39.5162 43.6364 38.925C43.6364 38.3339 43.1707 37.8503 42.578 37.8503ZM10.6048 37.8503H5.94801V28.2846H10.6048V37.8503ZM24.1519 37.8503H19.4951V23.6631H24.1519V37.8503ZM37.6989 37.8503H33.0421V20.3312H37.6989V37.8503Z" fill="#222629"/>
</svg>
