<svg width="48" height="41" viewBox="0 0 48 41" fill="none" xmlns="http://www.w3.org/2000/svg">
    <mask id="path-1-inside-1" fill="white">
        <path fill-rule="evenodd" clip-rule="evenodd" d="M34.5867 19.0315L47.8326 9.51575L34.5867 1.02914e-05L34.5867 5.85357L2.78602e-05 5.85356L2.72169e-05 13.1788L34.5867 13.1788L34.5867 19.0315Z"/>
    </mask>
    <path d="M47.8326 9.51575L48.9995 11.1401L51.2605 9.51575L48.9995 7.89145L47.8326 9.51575ZM34.5867 19.0315L32.5867 19.0315L32.5867 22.9309L35.7536 20.6558L34.5867 19.0315ZM34.5867 1.02914e-05L35.7536 -1.6243L32.5867 -3.89937L32.5867 1.01173e-05L34.5867 1.02914e-05ZM34.5867 5.85357L34.5867 7.85357L36.5867 7.85357L36.5867 5.85357L34.5867 5.85357ZM2.78602e-05 5.85356L2.80359e-05 3.85356L-1.99997 3.85356L-1.99997 5.85356L2.78602e-05 5.85356ZM2.72169e-05 13.1788L-1.99997 13.1788L-1.99997 15.1788L2.70412e-05 15.1788L2.72169e-05 13.1788ZM34.5867 13.1788L36.5867 13.1788L36.5867 11.1788L34.5867 11.1788L34.5867 13.1788ZM46.6657 7.89145L33.4198 17.4072L35.7536 20.6558L48.9995 11.1401L46.6657 7.89145ZM33.4198 1.62432L46.6657 11.1401L48.9995 7.89145L35.7536 -1.6243L33.4198 1.62432ZM36.5867 5.85357L36.5867 1.04654e-05L32.5867 1.01173e-05L32.5867 5.85357L36.5867 5.85357ZM2.76846e-05 7.85356L34.5867 7.85357L34.5867 3.85357L2.80359e-05 3.85356L2.76846e-05 7.85356ZM2.00003 13.1788L2.00003 5.85357L-1.99997 5.85356L-1.99997 13.1788L2.00003 13.1788ZM34.5867 11.1788L2.73925e-05 11.1788L2.70412e-05 15.1788L34.5867 15.1788L34.5867 11.1788ZM36.5867 19.0315L36.5867 13.1788L32.5867 13.1788L32.5867 19.0315L36.5867 19.0315Z" fill="#222629" mask="url(#path-1-inside-1)"/>
    <mask id="path-3-inside-2" fill="white">
        <path fill-rule="evenodd" clip-rule="evenodd" d="M13.2479 21.9689L0.00204468 31.4846L13.2479 41.0004V35.1474L47.8346 35.1474V27.8221L13.2479 27.8221V21.9689Z"/>
    </mask>
    <path d="M0.00204468 31.4846L-1.16485 29.8603L-3.42587 31.4846L-1.16485 33.1089L0.00204468 31.4846ZM13.2479 21.9689L15.2479 21.9689V18.0695L12.081 20.3446L13.2479 21.9689ZM13.2479 41.0004L12.081 42.6247L15.2479 44.8997L15.2479 41.0004H13.2479ZM13.2479 35.1474V33.1474H11.2479V35.1474H13.2479ZM47.8346 35.1474V37.1474H49.8346V35.1474H47.8346ZM47.8346 27.8221H49.8346V25.8221H47.8346V27.8221ZM13.2479 27.8221H11.2479L11.2479 29.8221H13.2479L13.2479 27.8221ZM1.16893 33.1089L14.4148 23.5932L12.081 20.3446L-1.16485 29.8603L1.16893 33.1089ZM14.4148 39.376L1.16893 29.8603L-1.16485 33.1089L12.081 42.6247L14.4148 39.376ZM11.2479 35.1474V41.0004H15.2479V35.1474H11.2479ZM47.8346 33.1474L13.2479 33.1474V37.1474L47.8346 37.1474V33.1474ZM45.8346 27.8221V35.1474H49.8346V27.8221H45.8346ZM13.2479 29.8221L47.8346 29.8221V25.8221L13.2479 25.8221L13.2479 29.8221ZM11.2479 21.9689V27.8221H15.2479V21.9689L11.2479 21.9689Z" fill="#222629" mask="url(#path-3-inside-2)"/>
</svg>
